<?xml version="1.0" encoding="utf-8"?>
<!-- Generator: Adobe Illustrator 16.0.0, SVG Export Plug-In . SVG Version: 6.00 Build 0)  -->
<!DOCTYPE svg PUBLIC "-//W3C//DTD SVG 1.1//EN" "http://www.w3.org/Graphics/SVG/1.1/DTD/svg11.dtd">
<svg version="1.1" id="圖層_1" xmlns="http://www.w3.org/2000/svg" xmlns:xlink="http://www.w3.org/1999/xlink" x="0px" y="0px"
	 width="60px" height="60px" viewBox="0 0 60 60" enable-background="new 0 0 60 60" xml:space="preserve">
<g>
	<path fill="#FFFFFF" d="M50.098,52.504c-12.299,11.099-31.266,10.127-42.366-2.17C-3.372,38.034-2.4,19.061,9.901,7.959
		C22.204-3.142,41.177-2.166,52.276,10.138C63.372,22.439,62.397,41.406,50.098,52.504z M47.847,49.311
		c10.549-9.849,11.115-26.385,1.264-36.931C39.263,1.838,22.735,1.273,12.191,11.117C1.646,20.961,1.077,37.488,10.917,48.035
		C20.763,58.588,37.298,59.158,47.847,49.311z"/>
	<path fill="#FFFFFF" d="M50.742,27.631c1.938,1.938,2.446,2.645,0.38,4.686L38.153,45.281c-1.019,1.021-1.938,2.151-3.554,0.988
		c-0.38-0.272-0.696-0.945-0.688-1.416c0.066-3.811,0.004-7.701,0.104-11.504c1.061,0.008,2.799,0.058,3.846,0.148l-0.023,5.203
		c-0.003,0.514,0.002,1.016-0.038,1.527l10.05-10.051l-9.938-9.938c0.143,1.674,0.019,4.641-0.078,6.31
		c-0.051,0.866-3.235,0.646-3.988,0.693c0.048-2.814,0.034-5.556,0.029-8.367l-0.002-2.393c0-0.559-0.02-1.158,0.061-1.715
		c0.169-1.157,1.823-1.743,2.74-1.101c0.633,0.445,1.267,1.156,1.826,1.717l2.995,2.999L50.742,27.631z"/>
	<path fill="#FFFFFF" d="M30.742,32.194c-0.587,0.031-1.172,0.026-1.76,0.03L11.06,32.315c-1.363-0.002-2.564,0.282-3.516-0.9
		C6.729,29.98,7.547,28.43,9.151,28.31c1.18-0.019,2.378-0.015,3.557-0.018l14.178-0.008c1.529-0.011,4.285-0.498,5.306,0.612
		C33.07,30.305,32.456,32.103,30.742,32.194z"/>
</g>
<g>
</g>
<g>
</g>
<g>
</g>
<g>
</g>
<g>
</g>
<g>
</g>
<g>
</g>
<g>
</g>
<g>
</g>
<g>
</g>
<g>
</g>
<g>
</g>
<g>
</g>
<g>
</g>
<g>
</g>
</svg>
