<?xml version="1.0" encoding="utf-8"?>
<!-- Generator: Adobe Illustrator 16.0.0, SVG Export Plug-In . SVG Version: 6.00 Build 0)  -->
<!DOCTYPE svg PUBLIC "-//W3C//DTD SVG 1.1//EN" "http://www.w3.org/Graphics/SVG/1.1/DTD/svg11.dtd">
<svg version="1.1" id="圖層_1" xmlns="http://www.w3.org/2000/svg" xmlns:xlink="http://www.w3.org/1999/xlink" x="0px" y="0px"
	 width="60px" height="60px" viewBox="0 0 60 60" enable-background="new 0 0 60 60" xml:space="preserve">
<g>
	<path fill="#FFFFFF" d="M50.098,52.271c-12.299,11.1-31.266,10.127-42.366-2.17C-3.372,37.803-2.4,18.829,9.901,7.727
		C22.204-3.374,41.177-2.398,52.276,9.906C63.372,22.208,62.397,41.174,50.098,52.271z M47.847,49.078
		c10.549-9.848,11.115-26.384,1.264-36.93C39.263,1.606,22.735,1.042,12.191,10.885C1.646,20.729,1.077,37.256,10.917,47.803
		C20.763,58.355,37.298,58.926,47.847,49.078z"/>
	<path fill="#FFFFFF" d="M26,40c0,1.104-0.896,2-2,2l0,0c-1.104,0-2-0.896-2-2V19c0-1.104,0.896-2,2-2l0,0c1.104,0,2,0.896,2,2V40z"
		/>
	<path fill="#FFFFFF" d="M37,40c0,1.104-0.896,2-2,2l0,0c-1.104,0-2-0.896-2-2V19c0-1.104,0.896-2,2-2l0,0c1.104,0,2,0.896,2,2V40z"
		/>
</g>
<g>
</g>
<g>
</g>
<g>
</g>
<g>
</g>
<g>
</g>
<g>
</g>
<g>
</g>
<g>
</g>
<g>
</g>
<g>
</g>
<g>
</g>
<g>
</g>
<g>
</g>
<g>
</g>
<g>
</g>
</svg>
