<?xml version="1.0" encoding="utf-8"?>
<!-- Generator: Adobe Illustrator 16.0.0, SVG Export Plug-In . SVG Version: 6.00 Build 0)  -->
<!DOCTYPE svg PUBLIC "-//W3C//DTD SVG 1.1//EN" "http://www.w3.org/Graphics/SVG/1.1/DTD/svg11.dtd">
<svg version="1.1" id="圖層_1" xmlns="http://www.w3.org/2000/svg" xmlns:xlink="http://www.w3.org/1999/xlink" x="0px" y="0px"
	 width="60px" height="60px" viewBox="0 0 60 60" enable-background="new 0 0 60 60" xml:space="preserve">
<g>
	<path fill="#FFFFFF" d="M7.682,10.138c11.1-12.304,30.072-13.279,42.375-2.179c12.302,11.102,13.273,30.075,2.17,42.375
		C41.126,62.631,22.159,63.603,9.86,52.504C-2.439,41.406-3.414,22.439,7.682,10.138z M49.041,48.035
		c9.84-10.547,9.271-27.074-1.274-36.918C37.223,1.273,20.695,1.838,10.848,12.38c-9.852,10.546-9.285,27.082,1.264,36.931
		C22.66,59.158,39.195,58.588,49.041,48.035z"/>
	<path fill="#FFFFFF" d="M18.464,18.384l2.995-2.999c0.56-0.561,1.193-1.271,1.826-1.717c0.917-0.643,2.571-0.057,2.74,1.101
		c0.08,0.557,0.061,1.156,0.061,1.715l-0.002,2.393c-0.005,2.812-0.019,5.553,0.029,8.367c-0.753-0.048-3.938,0.173-3.988-0.693
		c-0.097-1.669-0.221-4.636-0.078-6.31l-9.938,9.938l10.05,10.051c-0.04-0.512-0.035-1.014-0.038-1.527l-0.023-5.203
		c1.047-0.091,2.785-0.141,3.846-0.148c0.1,3.803,0.037,7.693,0.104,11.504c0.008,0.471-0.309,1.144-0.688,1.416
		c-1.616,1.163-2.535,0.033-3.554-0.988L8.836,32.316c-2.066-2.041-1.559-2.747,0.38-4.686L18.464,18.384z"/>
	<path fill="#FFFFFF" d="M27.767,28.896c1.021-1.11,3.776-0.623,5.306-0.612l14.178,0.008c1.179,0.003,2.377-0.001,3.557,0.018
		c1.604,0.12,2.422,1.671,1.607,3.105c-0.951,1.183-2.152,0.898-3.516,0.9l-17.923-0.091c-0.588-0.004-1.173,0.001-1.76-0.03
		C27.502,32.103,26.888,30.305,27.767,28.896z"/>
</g>
<g>
</g>
<g>
</g>
<g>
</g>
<g>
</g>
<g>
</g>
<g>
</g>
<g>
</g>
<g>
</g>
<g>
</g>
<g>
</g>
<g>
</g>
<g>
</g>
<g>
</g>
<g>
</g>
<g>
</g>
</svg>
