<?xml version="1.0" encoding="utf-8"?>
<!-- Generator: Adobe Illustrator 16.0.0, SVG Export Plug-In . SVG Version: 6.00 Build 0)  -->
<!DOCTYPE svg PUBLIC "-//W3C//DTD SVG 1.1//EN" "http://www.w3.org/Graphics/SVG/1.1/DTD/svg11.dtd">
<svg version="1.1" id="圖層_1" xmlns="http://www.w3.org/2000/svg" xmlns:xlink="http://www.w3.org/1999/xlink" x="0px" y="0px"
	 width="60px" height="60px" viewBox="0 0 60 60" enable-background="new 0 0 60 60" xml:space="preserve">
<g>
	<path fill="#FFFFFF" d="M50.098,52.504c-12.299,11.099-31.266,10.127-42.366-2.17C-3.372,38.034-2.4,19.061,9.901,7.959
		C22.204-3.142,41.177-2.166,52.276,10.138C63.372,22.439,62.397,41.406,50.098,52.504z M47.847,49.311
		c10.549-9.849,11.115-26.385,1.264-36.931C39.263,1.838,22.735,1.273,12.191,11.117C1.646,20.961,1.077,37.488,10.917,48.035
		C20.763,58.588,37.298,59.158,47.847,49.311z"/>
	<path fill="#FFFFFF" d="M39.741,27.631l-9.248-9.247l-2.995-2.999c-0.56-0.561-1.193-1.271-1.826-1.717
		c-0.917-0.643-2.571-0.057-2.74,1.101c-0.08,0.557,0.045,26.274-0.021,30.085c-0.008,0.471,0.309,1.144,0.688,1.416
		c1.616,1.163,2.535,0.033,3.554-0.988l12.969-12.965C42.188,30.275,41.68,29.569,39.741,27.631z M26.798,40.229
		c0,0,0.035-1.014,0.038-1.527c0,0,0.217-16.787,0.074-18.461l9.938,9.938L26.798,40.229z"/>
</g>
<g>
</g>
<g>
</g>
<g>
</g>
<g>
</g>
<g>
</g>
<g>
</g>
<g>
</g>
<g>
</g>
<g>
</g>
<g>
</g>
<g>
</g>
<g>
</g>
<g>
</g>
<g>
</g>
<g>
</g>
</svg>
